<?xml version="1.0" encoding="utf-8"?>
<!-- Generator: Adobe Illustrator 26.2.1, SVG Export Plug-In . SVG Version: 6.00 Build 0)  -->
<svg version="1.1" id="Capa_1" xmlns="http://www.w3.org/2000/svg" xmlns:xlink="http://www.w3.org/1999/xlink" x="0px" y="0px"
	 viewBox="0 0 50 50" style="enable-background:new 0 0 50 50;" xml:space="preserve">
<style type="text/css">
	.st0{fill:#FFE6E1;}
	.st1{fill:#EE938B;}
	.st2{fill:#D16363;}
	.st3{fill:#FFB647;}
	.st4{fill:#FFFFFF;}
	.st5{fill:#8FA5E8;}
	.st6{fill:#6682C0;}
</style>
<g>
	<ellipse transform="matrix(0.2298 -0.9732 0.9732 0.2298 -6.3804 44.6205)" class="st0" cx="25" cy="26.3" rx="23.7" ry="23.7"/>
	<g>
		<rect x="18" y="23.2" class="st1" width="14" height="14.1"/>
		<g>
			<path class="st1" d="M37.3,13.3c-0.7-1.7-2.1-0.8-2.1-0.8C36,5,32.2,0,25,0S14,5,14.8,12.5c0,0-1.4-0.8-2.1,0.8
				c-0.7,1.7,0.6,5.5,1.4,6.8c0.8,1.2,2.2,0.9,2.2,0.9s0.1,2.6,0.5,3.6c0.4,1,2.9,6.7,8.3,6.7s7.9-5.8,8.3-6.7
				c0.4-1,0.5-3.7,0.5-3.7s1.4,0.4,2.2-0.8C36.7,18.8,37.9,15,37.3,13.3z"/>
			<path class="st2" d="M25,31.5c-3.4,0-6.6-3.7-7.2-4.4l0.2-0.2c0.6,0.7,3.6,4.3,6.9,4.3c3.3,0,6.3-3.5,6.9-4.2l0.2,0.2
				C31.5,27.9,28.4,31.5,25,31.5z"/>
			
				<rect x="16" y="19" transform="matrix(0.9978 -6.655553e-02 6.655553e-02 0.9978 -1.2949 1.1216)" class="st2" width="0.3" height="2"/>
			
				<rect x="32.9" y="19.8" transform="matrix(7.942741e-02 -0.9968 0.9968 7.942741e-02 11.2569 52.074)" class="st2" width="1.9" height="0.3"/>
			<path class="st2" d="M13.7,17c-0.5-1.8-0.4-2.8,0.2-3.4l0.2,0.2c-0.5,0.5-0.6,1.5-0.1,3.1L13.7,17z"/>
			<path class="st2" d="M36.4,17l-0.3-0.1c0.4-1.6,0.4-2.6-0.1-3.1l0.2-0.2C36.8,14.2,36.9,15.3,36.4,17z"/>
			<path class="st3" d="M36.5,5.5c-2.6-2.1-5.3-4.3-7.3-4.8C28,0.2,26.6,0,25,0c-4.9,0-8.9,1.5-9.6,6.1c-2.2,0.9-1.8,4.6-1.3,6.2
				c0,0,0.4,0,0.7,0.2v0c0.9,0.6,1.2,2.3,1,3.9c2.1,0,0.5-6.8,2.2-8.5c6.3,4,14.7,1.9,14.7,1.9c0.2,2.6-0.1,6.6,1.4,6.6
				c-0.1-1.6-0.2-3.3,1-3.9l0,0c0.2-1.5,0.1-2.9-0.1-4.2C35.8,7.6,36.5,6.7,36.5,5.5z"/>
			<g>
				<path class="st4" d="M19.6,20.9c-2.4,0-4.4-2-4.4-4.4c0-2.4,2-4.4,4.4-4.4c2.4,0,4.4,2,4.4,4.4C24,19,22,20.9,19.6,20.9z
					 M19.6,12.4c-2.2,0-4.1,1.8-4.1,4.1c0,2.2,1.8,4.1,4.1,4.1c2.2,0,4.1-1.8,4.1-4.1C23.7,14.3,21.8,12.4,19.6,12.4z"/>
				<path class="st4" d="M30.4,20.9c-2.4,0-4.4-2-4.4-4.4c0-2.4,2-4.4,4.4-4.4c2.4,0,4.4,2,4.4,4.4C34.8,19,32.9,20.9,30.4,20.9z
					 M30.4,12.4c-2.2,0-4.1,1.8-4.1,4.1c0,2.2,1.8,4.1,4.1,4.1c2.2,0,4.1-1.8,4.1-4.1C34.5,14.3,32.7,12.4,30.4,12.4z"/>
				<path class="st4" d="M26.2,15.6c-0.4-0.4-1-0.6-1.5-0.6c-0.4,0-0.7,0.2-1,0.6l-0.3-0.2c0.3-0.4,0.7-0.6,1.2-0.7
					c0.6-0.1,1.2,0.2,1.7,0.7L26.2,15.6z"/>
			</g>
		</g>
		<path class="st5" d="M45.2,38.6c-6.7-3-13.2-4-13.2-4c-3.3,3.5-11.1,3.5-14,0c0,0-6.5,1.1-13.2,4C8.9,45.4,16.4,50,25,50
			C33.6,50,41.1,45.4,45.2,38.6z"/>
		<path class="st6" d="M24.8,39.3c-3.9,0-7.2-1.6-9.4-4.1l0.2-0.2c3.9,4.5,11.8,6,19.5,0.2l0.2,0.3C31.7,38.1,28.1,39.3,24.8,39.3z"
			/>
	</g>
</g>
</svg>
